<svg width="760" height="248" viewBox="0 0 760 248" fill="none" xmlns="http://www.w3.org/2000/svg">
  <rect x="4" y="4" width="752" height="240" rx="30" fill="#000000"/>
  <rect x="4" y="4" width="752" height="240" rx="30" stroke="#B8B8B8" stroke-width="8"/>
  <path d="M153.079 57.7143C149.61 61.8237 144.004 65.092 138.414 64.6182C137.687 58.9054 140.496 52.8686 143.871 48.9314C147.277 44.9314 153.252 42.0844 158.026 41.8571C158.59 47.7477 156.298 53.5749 153.079 57.7143ZM157.964 67.6997C149.874 67.2271 142.986 72.1548 139.095 72.1548C135.205 72.1548 129.204 67.9366 122.786 68.0509C114.357 68.1712 106.528 72.9997 102.192 80.6677C93.1537 96.0203 99.8222 118.64 108.553 131.04C112.837 137.101 117.963 143.911 124.646 143.667C131.032 143.425 133.447 139.693 141.145 139.693C148.843 139.693 151.011 143.667 157.768 143.512C164.701 143.425 169.09 137.3 173.341 131.207C178.271 124.201 180.299 117.447 180.42 117.095C180.284 117.052 167.051 112.039 166.917 96.9371C166.793 84.2927 177.612 78.2579 178.12 77.9645C171.858 68.9098 162.176 67.6997 157.964 67.6997Z" fill="white"/>
  <text x="250" y="96" fill="white" font-family="Inter, SF Pro Display, Helvetica, Arial, sans-serif" font-size="52" font-weight="500">
    Download app for
  </text>
  <text x="250" y="178" fill="white" font-family="Inter, SF Pro Display, Helvetica, Arial, sans-serif" font-size="88" font-weight="700">
    macOS
  </text>
</svg>
